<svg xmlns="http://www.w3.org/2000/svg" xmlns:xlink="http://www.w3.org/1999/xlink" width="500" zoomAndPan="magnify" viewBox="0 0 375 374.999991" height="500" preserveAspectRatio="xMidYMid meet" version="1.0"><rect x="-37.5" width="450" fill="#ffffff" y="-37.499999" height="449.999989" fill-opacity="1"/><path fill="#000000" d="M 346.433594 188.230469 C 346.0625 188.433594 345.6875 188.632812 345.300781 188.839844 C 340.773438 191.300781 336.410156 193.996094 332.058594 196.753906 C 331.1875 197.304688 330.3125 197.847656 329.4375 198.386719 C 325.910156 200.554688 322.492188 202.867188 319.085938 205.222656 C 318.269531 205.789062 317.453125 206.347656 316.636719 206.90625 C 313.839844 208.816406 311.070312 210.75 308.347656 212.769531 C 308.136719 212.925781 307.921875 213.082031 307.703125 213.246094 C 304.152344 215.863281 300.695312 218.582031 297.285156 221.386719 C 296.691406 221.875 296.09375 222.359375 295.496094 222.839844 C 293.566406 224.402344 291.707031 226.015625 289.875 227.6875 C 288.566406 228.847656 287.210938 229.9375 285.84375 231.027344 C 284.867188 231.851562 283.972656 232.726562 283.082031 233.640625 C 285.066406 233.410156 287.023438 233.113281 288.984375 232.746094 C 289.566406 232.636719 290.148438 232.53125 290.730469 232.425781 C 291.035156 232.371094 291.339844 232.316406 291.652344 232.257812 C 307.695312 229.359375 323.894531 227.453125 340.210938 227.78125 C 339.4375 228.554688 338.898438 228.8125 337.902344 229.230469 C 337.585938 229.367188 337.265625 229.5 336.941406 229.640625 C 336.597656 229.78125 336.257812 229.925781 335.90625 230.070312 C 335.558594 230.21875 335.207031 230.367188 334.847656 230.523438 C 333.363281 231.152344 331.875 231.777344 330.382812 232.386719 C 326.988281 233.792969 323.773438 235.480469 320.542969 237.222656 C 319.765625 237.636719 318.984375 238.046875 318.203125 238.453125 C 315.203125 240.023438 312.316406 241.726562 309.449219 243.53125 C 308.996094 243.804688 308.546875 244.078125 308.09375 244.347656 C 302.3125 247.851562 296.957031 251.902344 291.871094 256.347656 C 291.015625 257.082031 290.160156 257.8125 289.304688 258.542969 C 289.570312 258.523438 289.835938 258.5 290.109375 258.476562 C 304.347656 257.328125 318.667969 257.507812 332.886719 258.910156 C 331.828125 259.617188 331.027344 259.929688 329.824219 260.308594 C 329.230469 260.5 329.230469 260.5 328.621094 260.695312 C 328.191406 260.832031 327.765625 260.96875 327.324219 261.109375 C 316.886719 264.519531 303.59375 268.96875 295.519531 276.824219 C 295.320312 277.011719 295.121094 277.195312 294.914062 277.386719 C 294.53125 277.753906 294.15625 278.128906 293.792969 278.515625 C 292.832031 279.421875 292.183594 279.769531 290.84375 279.835938 C 289.589844 279.746094 288.355469 279.59375 287.109375 279.417969 C 286.253906 279.324219 285.398438 279.230469 284.542969 279.144531 C 284.089844 279.09375 283.640625 279.046875 283.175781 278.996094 C 271.550781 277.796875 259.929688 277.988281 248.324219 279.332031 C 247.519531 279.421875 246.714844 279.511719 245.910156 279.601562 C 240.707031 280.183594 235.515625 280.78125 230.347656 281.617188 C 232.746094 275.433594 240.117188 272.558594 245.726562 269.898438 C 229.292969 270.753906 213.230469 273.875 197.296875 277.886719 C 196.9375 277.976562 196.9375 277.976562 196.574219 278.066406 C 194.972656 278.46875 193.375 278.878906 191.773438 279.289062 C 191.375 279.390625 190.976562 279.492188 190.566406 279.597656 C 187.808594 280.316406 185.089844 281.125 182.371094 281.980469 C 184.160156 278.269531 187.582031 275.8125 190.792969 273.386719 C 191.570312 272.792969 192.339844 272.1875 193.105469 271.574219 C 196.714844 268.699219 200.425781 266.105469 204.34375 263.671875 C 200.347656 264.179688 196.429688 264.933594 192.488281 265.777344 C 192.183594 265.84375 191.878906 265.90625 191.5625 265.976562 C 176.757812 269.128906 161.984375 273.289062 147.933594 278.980469 C 147.214844 279.269531 146.484375 279.53125 145.75 279.785156 C 145.511719 279.664062 145.269531 279.542969 145.019531 279.417969 C 148.925781 274.066406 153.527344 269.21875 158.753906 265.132812 C 159.753906 264.335938 160.679688 263.488281 161.613281 262.617188 C 173.613281 251.617188 188.226562 242.777344 202.515625 235.105469 C 202.851562 234.925781 203.191406 234.742188 203.539062 234.554688 C 232.953125 218.851562 264.53125 207.390625 338.363281 189.109375 C 339.160156 188.957031 339.949219 188.792969 340.742188 188.632812 C 341.273438 188.527344 341.804688 188.421875 342.335938 188.316406 C 342.808594 188.222656 343.277344 188.125 343.761719 188.027344 C 344.835938 187.882812 345.441406 187.863281 346.433594 188.230469 Z M 346.433594 188.230469 " fill-opacity="1" fill-rule="nonzero"/><path fill="#000000" d="M 232.175781 93.75 C 230.601562 95.121094 229.019531 96.488281 227.441406 97.855469 C 226.964844 98.265625 226.492188 98.679688 226.015625 99.089844 C 223.238281 101.496094 220.429688 103.847656 217.554688 106.132812 C 217.199219 106.417969 217.199219 106.417969 216.835938 106.707031 C 216.625 106.875 216.414062 107.042969 216.195312 107.214844 C 215.648438 107.65625 215.648438 107.65625 215.332031 108.398438 C 215.753906 108.445312 216.171875 108.492188 216.605469 108.539062 C 218.203125 108.742188 219.753906 109.0625 221.324219 109.417969 C 221.929688 109.550781 222.539062 109.6875 223.148438 109.820312 C 223.628906 109.925781 223.628906 109.925781 224.121094 110.035156 C 248.203125 115.269531 272.757812 117.414062 297.320312 118.789062 C 301.601562 119.027344 305.882812 119.300781 310.160156 119.585938 C 311.253906 119.65625 312.347656 119.730469 313.441406 119.800781 C 315.039062 119.90625 316.636719 120.011719 318.238281 120.117188 C 318.238281 120.359375 318.238281 120.601562 318.238281 120.847656 C 317.859375 121.003906 317.476562 121.160156 317.085938 121.320312 C 313.644531 122.730469 310.214844 124.167969 306.796875 125.640625 C 305.984375 125.988281 305.171875 126.339844 304.355469 126.6875 C 302.351562 127.550781 300.347656 128.410156 298.34375 129.273438 C 296.40625 130.105469 294.46875 130.9375 292.535156 131.765625 C 292.269531 131.882812 292 131.996094 291.726562 132.113281 C 287.027344 134.128906 282.316406 136.109375 277.585938 138.0625 C 277.835938 138.132812 278.082031 138.203125 278.335938 138.277344 C 286.234375 140.589844 293.742188 143.375 301.023438 147.214844 C 301.398438 147.410156 301.769531 147.601562 302.152344 147.796875 C 304.476562 149.023438 306.59375 150.433594 308.714844 151.976562 C 309.316406 152.40625 309.917969 152.832031 310.519531 153.257812 C 312.050781 154.347656 313.578125 155.4375 315.082031 156.5625 C 319.003906 159.492188 323.066406 162.199219 327.152344 164.886719 C 327.925781 165.398438 328.699219 165.910156 329.46875 166.429688 C 336.300781 170.949219 343.640625 174.800781 350.828125 178.710938 C 350.828125 178.832031 350.828125 178.953125 350.828125 179.078125 C 350.597656 179.113281 350.367188 179.148438 350.128906 179.1875 C 341.34375 180.585938 332.667969 182.453125 323.984375 184.355469 C 323.089844 184.550781 322.199219 184.742188 321.308594 184.933594 C 298.980469 189.75 276.792969 196.027344 255.25 203.613281 C 254.894531 203.738281 254.894531 203.738281 254.53125 203.867188 C 247.371094 206.394531 240.300781 209.15625 233.277344 212.035156 C 232.683594 212.28125 232.683594 212.28125 232.078125 212.527344 C 218.367188 218.167969 204.824219 224.371094 192.097656 231.992188 C 191.011719 232.632812 189.914062 233.242188 188.808594 233.847656 C 185.300781 235.769531 182.003906 237.96875 178.710938 240.234375 C 178.367188 240.46875 178.027344 240.703125 177.675781 240.945312 C 173.542969 243.777344 169.445312 246.628906 165.527344 249.753906 C 165.222656 249.996094 164.921875 250.238281 164.609375 250.488281 C 164.015625 250.960938 163.425781 251.433594 162.835938 251.910156 C 162.117188 252.484375 161.394531 253.054688 160.667969 253.621094 C 158.292969 255.46875 155.957031 257.351562 153.667969 259.308594 C 152.207031 260.554688 150.71875 261.761719 149.214844 262.957031 C 147.558594 264.273438 145.925781 265.625 144.285156 266.96875 C 143.277344 267.792969 142.269531 268.617188 141.261719 269.445312 C 140.605469 269.976562 139.953125 270.511719 139.304688 271.050781 C 138.28125 271.886719 137.253906 272.722656 136.230469 273.558594 C 135.90625 273.824219 135.90625 273.824219 135.578125 274.097656 C 128.632812 279.804688 122.679688 282.410156 113.523438 281.617188 C 107.316406 280.796875 102.515625 277.351562 98.722656 272.535156 C 89.726562 260.519531 82.804688 245.800781 82.03125 230.710938 C 83.101562 231.730469 83.957031 232.777344 84.800781 233.984375 C 89.585938 240.605469 94.78125 245.796875 102.90625 247.925781 C 102.785156 247.554688 102.667969 247.1875 102.542969 246.808594 C 100.542969 240.464844 99.878906 234.53125 99.882812 227.898438 C 99.882812 227.605469 99.882812 227.316406 99.882812 227.015625 C 99.886719 226.171875 99.894531 225.328125 99.902344 224.484375 C 99.902344 224.230469 99.90625 223.980469 99.90625 223.722656 C 99.929688 221.996094 100.105469 220.335938 100.339844 218.628906 C 101.050781 219.695312 101.394531 220.65625 101.769531 221.871094 C 104.144531 229.542969 108.21875 236.738281 114.578125 241.835938 C 115.652344 242.558594 115.652344 242.558594 116.625 242.191406 C 121.273438 239.734375 123.488281 232.191406 125.171875 227.613281 C 125.300781 227.261719 125.300781 227.261719 125.433594 226.90625 C 125.855469 225.75 126.269531 224.597656 126.671875 223.433594 C 128.0625 219.554688 130.070312 216.644531 133.371094 214.164062 C 133.570312 214.011719 133.765625 213.859375 133.972656 213.699219 C 135.394531 212.636719 136.832031 211.972656 138.472656 211.28125 C 140.003906 210.496094 140.515625 210.121094 141.152344 208.503906 C 141.511719 206.886719 141.625 205.261719 141.722656 203.613281 C 141.769531 203.140625 141.8125 202.664062 141.859375 202.175781 C 141.980469 200.703125 142.046875 199.230469 142.089844 197.753906 C 142.105469 197.304688 142.105469 197.304688 142.121094 196.847656 C 142.382812 188.046875 140.964844 179.964844 134.882812 173.1875 C 132.824219 171.0625 130.664062 169.308594 128.171875 167.722656 C 127.734375 167.4375 127.296875 167.148438 126.859375 166.859375 C 112.4375 157.449219 94.851562 154.457031 78.003906 152.710938 C 77.050781 157.503906 76.128906 162.304688 75.347656 167.128906 C 75.257812 167.671875 75.257812 167.671875 75.167969 168.226562 C 73.675781 177.636719 73.324219 188.773438 76.902344 197.753906 C 69.917969 194.675781 65.277344 183.96875 62.578125 177.34375 C 59.640625 169.761719 58.875 161.875 58.960938 153.808594 C 58.40625 153.910156 58.40625 153.910156 57.84375 154.011719 C 53.828125 154.730469 49.804688 155.382812 45.777344 156.003906 C 44.527344 163.660156 44.527344 163.660156 43.945312 171.386719 C 43.933594 171.746094 43.933594 171.746094 43.921875 172.113281 C 43.617188 182.964844 45.574219 193.019531 49.074219 203.246094 C 47.183594 202.761719 45.957031 201.886719 44.5625 200.570312 C 44.355469 200.371094 44.148438 200.175781 43.933594 199.972656 C 35.140625 191.414062 30.015625 176.753906 28.65625 164.785156 C 28.617188 164.433594 28.574219 164.085938 28.535156 163.722656 C 28.464844 163.070312 28.410156 162.417969 28.367188 161.761719 C 28.238281 160.425781 28.136719 159.605469 27.160156 158.632812 C 26.378906 158.039062 26.378906 158.039062 25.574219 157.546875 C 24.902344 157.105469 24.902344 157.105469 24.351562 156.257812 C 23.808594 153.324219 24.167969 150.9375 25.636719 148.316406 C 26.933594 146.484375 28.300781 144.6875 30.121094 143.347656 C 32.867188 140.914062 33.402344 137.292969 34.101562 133.847656 C 34.699219 131.050781 35.628906 129.070312 38.085938 127.441406 C 39.335938 126.921875 39.335938 126.921875 40.71875 126.480469 C 41.167969 126.332031 41.621094 126.183594 42.085938 126.03125 C 45.449219 125.042969 48.738281 124.742188 52.230469 124.558594 C 66.144531 123.6875 78.71875 119.914062 90.832031 113.042969 C 92.804688 111.925781 94.789062 110.828125 96.769531 109.726562 C 97.390625 109.382812 97.390625 109.382812 98.019531 109.03125 C 99.28125 108.332031 100.542969 107.632812 101.804688 106.933594 C 102.238281 106.695312 102.671875 106.453125 103.101562 106.214844 C 104.371094 105.511719 105.640625 104.8125 106.910156 104.117188 C 107.480469 103.800781 107.480469 103.800781 108.058594 103.480469 C 113.066406 100.753906 117.195312 100.121094 122.796875 100.089844 C 123.53125 100.082031 124.269531 100.070312 125.007812 100.058594 C 127.15625 100.03125 129.300781 100.007812 131.449219 99.988281 C 136.347656 99.945312 141.242188 99.882812 146.140625 99.828125 C 146.769531 99.820312 147.394531 99.8125 148.023438 99.804688 C 163.636719 99.621094 179.230469 99.199219 194.824219 98.328125 C 195.414062 98.292969 195.414062 98.292969 196.019531 98.261719 C 203.117188 97.863281 210.164062 97.335938 217.175781 96.132812 C 217.992188 95.992188 218.8125 95.855469 219.628906 95.722656 C 222.6875 95.210938 225.699219 94.605469 228.703125 93.8125 C 229.96875 93.492188 230.933594 93.253906 232.175781 93.75 Z M 142.984375 119.75 C 142.539062 119.933594 142.09375 120.117188 141.636719 120.304688 C 140.742188 120.671875 139.851562 121.042969 138.957031 121.417969 C 137.808594 121.902344 136.652344 122.375 135.496094 122.84375 C 134.863281 123.101562 134.230469 123.359375 133.597656 123.617188 C 133.164062 123.796875 133.164062 123.796875 132.722656 123.976562 C 131.289062 124.488281 131.289062 124.488281 130.371094 125.609375 C 134.199219 126.636719 138.074219 127.429688 141.957031 128.21875 C 142.703125 128.371094 143.449219 128.527344 144.195312 128.683594 C 145.289062 128.914062 146.378906 129.136719 147.472656 129.359375 C 147.800781 129.429688 148.132812 129.5 148.472656 129.570312 C 151.230469 130.117188 153.785156 130.179688 156.351562 128.890625 C 156.660156 128.742188 156.96875 128.589844 157.285156 128.433594 C 157.605469 128.273438 157.921875 128.113281 158.25 127.945312 C 158.929688 127.609375 159.609375 127.273438 160.292969 126.9375 C 160.789062 126.691406 160.789062 126.691406 161.292969 126.4375 C 162.554688 125.816406 163.835938 125.230469 165.117188 124.648438 C 167.875 123.367188 170.546875 121.941406 173.21875 120.484375 C 173.21875 120.363281 173.21875 120.242188 173.21875 120.117188 C 164.644531 119.0625 164.644531 119.0625 156.050781 118.195312 C 155.734375 118.164062 155.417969 118.136719 155.09375 118.105469 C 154.175781 118.027344 153.261719 117.972656 152.34375 117.917969 C 152.003906 117.894531 151.664062 117.867188 151.3125 117.839844 C 148.199219 117.695312 145.820312 118.542969 142.984375 119.75 Z M 142.984375 119.75 " fill-opacity="1" fill-rule="nonzero"/></svg>